<?xml version="1.0" encoding="iso-8859-1"?>
<!-- Generator: Adobe Illustrator 19.0.0, SVG Export Plug-In . SVG Version: 6.00 Build 0)  -->
<svg version="1.1" id="Capa_1" xmlns="http://www.w3.org/2000/svg" xmlns:xlink="http://www.w3.org/1999/xlink" x="0px" y="0px"
	 viewBox="0 0 512 512" style="enable-background:new 0 0 512 512;" xml:space="preserve">
<g>
	<path style="fill:#F6BB92;" d="M161.067,418.133H140.8c-11.785,0-21.333-11.46-21.333-25.6l0,0c0-14.14,9.549-25.6,21.333-25.6
		h14.933"/>
	<path style="fill:#F6BB92;" d="M350.933,418.133H371.2c11.785,0,21.333-11.46,21.333-25.6l0,0c0-14.14-9.549-25.6-21.333-25.6
		h-17.348"/>
</g>
<path style="fill:#FDC9A6;" d="M256,503.467L256,503.467c-56.55,0-102.4-45.85-102.4-102.4v-34.133c0-56.55,45.85-102.4,102.4-102.4
	l0,0c56.55,0,102.4,45.85,102.4,102.4v34.133C358.4,457.617,312.55,503.467,256,503.467z"/>
<path style="fill:#FBB540;" d="M341.905,256c35.456-24.602,50.628-64.947,50.628-111.283C392.533,69.504,331.409,8.533,256,8.533
	S119.467,69.504,119.467,144.717c0,47.002,15.019,86.81,51.337,111.283l8.397,8.533h145.067L341.905,256z"/>
<polyline style="fill:#C7463B;" points="247.467,145.067 247.62,204.8 307.354,119.467 264.687,119.467 264.533,119.467 
	264.533,59.733 204.8,145.067 247.313,145.109 "/>
<polygon style="fill:#DC4D41;" points="264.687,119.467 264.533,119.467 264.533,75.58 221.867,136.533 264.38,136.576 
	264.533,136.533 264.644,180.48 307.354,119.467 "/>
<g>
	<rect x="418.304" y="135.979" style="fill:#F4CA62;" width="50.688" height="17.067"/>
	<rect x="42.82" y="135.979" style="fill:#F4CA62;" width="50.688" height="17.067"/>
	
		<rect x="93.371" y="11.28" transform="matrix(-0.5768 0.8169 -0.8169 -0.5768 190.6031 -25.4886)" style="fill:#F4CA62;" width="17.067" height="50.697"/>
	
		<rect x="76.555" y="241.413" transform="matrix(-0.8169 0.5768 -0.5768 -0.8169 329.3145 395.3477)" style="fill:#F4CA62;" width="50.697" height="17.067"/>
	
		<rect x="388.048" y="28.079" transform="matrix(-0.8169 0.5768 -0.5768 -0.8169 772.2133 -171.9231)" style="fill:#F4CA62;" width="50.697" height="17.067"/>
	
		<rect x="404.85" y="224.646" transform="matrix(-0.5768 0.8169 -0.8169 -0.5768 856.0387 56.5)" style="fill:#F4CA62;" width="17.067" height="50.697"/>
</g>
<g>
	<circle style="fill:#744630;" cx="207.462" cy="402.944" r="13.892"/>
	<circle style="fill:#744630;" cx="300.032" cy="402.944" r="13.892"/>
	<path style="fill:#744630;" d="M259.61,474.752c-14.857,0-28.117-6.886-35.319-12.8l10.812-13.21
		c0.998,0.811,24.559,19.379,45.295,0.333l11.554,12.57C281.421,471.305,270.114,474.752,259.61,474.752z"/>
	<path style="fill:#744630;" d="M263.834,443.75l-18.517-9.259c-3.797-1.903-5.623-6.298-4.275-10.334l9.259-27.785l16.179,5.402
		l-6.921,20.762l11.904,5.948L263.834,443.75z"/>
</g>
<path style="fill:#804D35;" d="M256,264.533c-56.55,0-102.4,45.85-102.4,102.4c0,0,53.41,2.21,81.374-34.842
	c0,0,58.035,45.363,123.426,43.375v-8.533C358.4,310.383,312.55,264.533,256,264.533z"/>
<polygon style="fill:#C9C9C9;" points="332.8,298.667 179.2,298.667 179.2,281.6 170.667,256 341.333,256 332.8,281.6 "/>
<rect x="179.2" y="281.6" style="fill:#B9B9B9;" width="153.6" height="17.067"/>
<path d="M207.462,389.086c-7.671,0-13.892,6.221-13.892,13.892s6.221,13.892,13.892,13.892c7.671,0,13.892-6.221,13.892-13.892
	S215.134,389.086,207.462,389.086z"/>
<circle cx="300.032" cy="402.944" r="13.892"/>
<path d="M235.102,448.742l-10.812,13.21c7.202,5.914,20.454,12.8,35.319,12.8c10.505,0,21.811-3.439,32.333-13.107l-11.554-12.57
	C259.661,468.113,236.1,449.553,235.102,448.742z"/>
<path d="M245.316,434.492l18.517,9.259l7.637-15.266l-11.904-5.948l6.921-20.762l-16.179-5.402l-9.259,27.785
	C239.693,428.194,241.519,432.589,245.316,434.492z"/>
<rect x="418.133" y="136.533" width="51.2" height="17.067"/>
<rect x="42.667" y="136.533" width="51.2" height="17.067"/>
<rect x="93.371" y="11.28" transform="matrix(-0.5768 0.8169 -0.8169 -0.5768 190.6031 -25.4886)" width="17.067" height="50.697"/>
<rect x="76.563" y="241.404" transform="matrix(-0.8169 0.5768 -0.5768 -0.8169 329.3251 395.3272)" width="50.697" height="17.067"/>
<rect x="388.048" y="28.079" transform="matrix(-0.8169 0.5768 -0.5768 -0.8169 772.2133 -171.9231)" width="50.697" height="17.067"/>
<rect x="404.85" y="224.646" transform="matrix(-0.5768 0.8169 -0.8169 -0.5768 856.0387 56.5)" width="17.067" height="50.697"/>
<path d="M363.836,426.667h7.364c16.469,0,29.867-15.309,29.867-34.133S387.669,358.4,371.2,358.4h-4.659
	c-1.758-22.844-10.547-44.501-25.207-62.174v-13.244l7.1-21.291c34.381-24.764,52.634-65.101,52.634-116.975
	C401.067,64.913,335.991,0,256,0S110.933,64.913,110.933,144.717c0,52.489,17.724,91.503,52.403,116.275l7.33,21.99v13.312
	c-14.541,17.587-23.373,39.253-25.148,62.106H140.8c-16.469,0-29.867,15.309-29.867,34.133s13.397,34.133,29.867,34.133h7.364
	C159.77,475.511,203.657,512,256,512S352.23,475.511,363.836,426.667z M324.71,278.903c-0.29,0.87-0.444,1.783-0.444,2.697v8.533
	H187.733V281.6c0-0.913-0.154-1.826-0.444-2.697l-4.779-14.37h146.987L324.71,278.903z M183.765,307.2h144.521
	c13.867,16.768,21.555,37.769,21.581,59.639c-57.779-1.826-109.099-41.054-109.636-41.472c-1.801-1.399-4.062-2.048-6.366-1.732
	c-2.27,0.299-4.318,1.493-5.692,3.319c-18.509,24.516-50.313,29.952-65.562,31.13C164.386,339.354,171.827,321.655,183.765,307.2z
	 M384,392.533c0,9.25-5.862,17.067-12.8,17.067h-4.702c0.222-2.825,0.435-5.649,0.435-8.533v-25.6h4.267
	C378.138,375.467,384,383.283,384,392.533z M128,144.717c0-70.383,57.421-127.65,128-127.65s128,57.267,128,127.65
	c0,32.094-7.842,75.682-44.817,102.75H173.457C143.292,226.065,128,191.514,128,144.717z M140.8,409.6
	c-6.938,0-12.8-7.817-12.8-17.067s5.862-17.067,12.8-17.067h4.267v25.6c0,2.884,0.213,5.709,0.435,8.533H140.8z M256,494.933
	c-51.755,0-93.867-42.112-93.867-93.867V375.27c16.119-0.973,50.628-6.093,74.274-31.607
	c16.589,11.401,61.739,38.793,113.459,40.269v17.135C349.867,452.821,307.755,494.933,256,494.933z"/>
<path d="M204.791,153.6l34.167,0.043l0.128,51.183c0.009,3.721,2.423,6.997,5.973,8.115c0.853,0.265,1.707,0.393,2.56,0.393
	c2.731,0,5.367-1.314,6.989-3.644l59.733-85.333c1.826-2.611,2.048-6.007,0.572-8.832c-1.468-2.825-4.378-4.591-7.561-4.591h-34.287
	v-51.2c0-3.729-2.415-7.014-5.965-8.141c-3.55-1.101-7.415,0.188-9.557,3.251l-59.733,85.333c-1.826,2.603-2.048,6.007-0.58,8.823
	C198.69,151.825,201.609,153.6,204.791,153.6z M256,86.801v32.666c0,4.719,3.968,8.533,8.687,8.533h26.274l-34.876,49.826
	L256,145.041c-0.009-4.702-3.831-8.508-8.533-8.508c-0.299-0.06-0.614,0.017-0.913,0.051l-25.378-0.034L256,86.801z"/>
<g>
</g>
<g>
</g>
<g>
</g>
<g>
</g>
<g>
</g>
<g>
</g>
<g>
</g>
<g>
</g>
<g>
</g>
<g>
</g>
<g>
</g>
<g>
</g>
<g>
</g>
<g>
</g>
<g>
</g>
</svg>
