<svg id="Capa_1" enable-background="new 0 0 510.015 510.015" height="512" viewBox="0 0 510.015 510.015" width="512" xmlns="http://www.w3.org/2000/svg"><path d="m325.848 0c-101.55 0-184.167 82.617-184.167 184.167 0 31.895 8.154 61.918 22.479 88.105l-148.899 148.898c-20.34 20.328-20.355 53.248-.007 73.584 20.332 20.344 53.253 20.351 73.587.003l148.902-148.902c26.186 14.327 56.21 22.48 88.105 22.48 101.55 0 184.167-82.617 184.167-184.168 0-101.55-82.617-184.167-184.167-184.167zm-258.223 473.548c-8.512 8.516-22.444 8.709-31.157-.008-8.611-8.607-8.618-22.536.004-31.153l144.561-144.561c9.109 11.582 19.576 22.048 31.157 31.157zm258.223-135.213c-85.008 0-154.167-69.159-154.167-154.168 0-85.008 69.16-154.167 154.167-154.167s154.167 69.159 154.167 154.167c0 85.009-69.159 154.168-154.167 154.168z"/><path d="m373.008 73c-8.284 0-15 6.716-15 15v7.5h-64.318v-7.5c0-8.284-6.716-15-15-15s-15 6.716-15 15v47.996c0 15.295 7.51 29.621 20.091 38.323l14.24 9.848-14.241 9.849c-12.58 8.701-20.09 23.027-20.09 38.322v47.996c0 8.284 6.716 15 15 15s15-6.716 15-15v-7.5h64.318v7.5c0 8.284 6.716 15 15 15s15-6.716 15-15v-45.979c0-15.296-7.511-29.622-20.091-38.323l-17.157-11.866 17.157-11.866c12.58-8.701 20.091-23.027 20.091-38.323v-45.977c0-8.284-6.716-15-15-15zm-22.156 147.707c4.48 3.099 7.155 8.201 7.155 13.649v8.479h-64.318v-10.496c0-5.447 2.676-10.551 7.155-13.649l23.545-16.284zm0-73.079-26.462 18.302-23.544-16.283c-4.48-3.1-7.156-8.203-7.156-13.65v-10.497h64.318v8.479c0 5.448-2.675 10.55-7.156 13.649z"/></svg>